<?xml version="1.0" standalone="no"?>
<!DOCTYPE svg PUBLIC "-//W3C//DTD SVG 20010904//EN"
 "http://www.w3.org/TR/2001/REC-SVG-20010904/DTD/svg10.dtd">
<svg version="1.0" xmlns="http://www.w3.org/2000/svg"
 width="300.000000pt" height="225.000000pt" viewBox="0 0 300.000000 225.000000"
 preserveAspectRatio="xMidYMid meet">
<metadata>
Created by potrace 1.10, written by Peter Selinger 2001-2011
</metadata>
<g transform="translate(0.000000,225.000000) scale(0.100000,-0.100000)"
fill="#000000" stroke="none">
<path d="M1238 1766 c-21 -7 -53 -27 -73 -45 -19 -17 -48 -33 -63 -37 -106
-23 -140 -49 -181 -139 -16 -33 -38 -69 -49 -79 -17 -15 -22 -30 -22 -71 0
-31 -8 -68 -20 -93 -22 -46 -27 -133 -9 -195 8 -30 7 -44 -5 -69 -21 -40 -20
-92 0 -109 23 -19 34 -52 22 -66 -20 -25 33 -105 134 -204 53 -53 107 -99 118
-102 12 -3 -24 39 -83 97 -110 108 -152 169 -141 210 3 15 -2 39 -15 64 -25
50 -26 65 -5 98 14 21 15 32 5 77 -7 28 -15 67 -18 85 -6 40 6 111 16 93 10
-16 31 55 31 109 0 34 6 47 30 70 17 15 30 33 30 38 0 6 12 24 26 41 21 25 22
30 7 24 -15 -6 -13 -1 8 27 14 18 36 37 48 42 23 8 23 8 -4 -29 l-28 -38 39
37 c21 20 57 45 79 54 22 9 55 29 72 45 53 46 96 52 234 34 38 -5 59 -3 63 4
10 15 67 13 89 -3 10 -8 49 -24 86 -36 64 -20 71 -25 96 -71 15 -27 37 -60 50
-73 35 -35 44 -59 43 -114 -1 -45 3 -55 36 -92 31 -35 36 -46 31 -73 -4 -19 0
-52 9 -79 9 -25 13 -53 10 -62 -3 -9 -1 -23 6 -31 9 -11 8 -26 -3 -67 -8 -29
-15 -75 -16 -102 -2 -58 -15 -78 -46 -70 -28 7 -35 -14 -22 -67 7 -31 4 -43
-28 -100 -20 -35 -40 -71 -44 -79 -11 -21 -86 -56 -148 -70 -29 -6 -53 -16
-53 -22 0 -16 87 1 160 31 57 24 66 32 75 63 5 19 15 41 21 49 21 27 63 117
57 122 -3 4 9 28 26 55 24 39 31 60 31 101 0 31 7 62 16 76 12 19 14 35 8 62
-4 21 -8 50 -9 64 -2 14 -8 35 -14 47 -6 11 -11 48 -11 80 0 54 -4 64 -35 102
-27 33 -33 47 -29 70 9 42 -13 95 -53 132 -19 18 -43 49 -54 70 -25 50 -64 78
-107 78 -19 0 -50 10 -69 21 -27 17 -48 21 -91 19 -89 -4 -103 -4 -167 3 -42
5 -71 3 -97 -7z"/>
<path d="M1355 1678 c-51 -34 -101 -111 -111 -169 -5 -31 -9 -35 -29 -31 -20
3 -27 -2 -39 -33 -9 -20 -25 -44 -36 -53 -29 -24 -51 -114 -43 -179 4 -40 2
-53 -7 -51 -9 2 -13 -27 -17 -107 -2 -60 -7 -112 -10 -115 -3 -3 -3 50 -1 118
3 75 1 117 -4 108 -13 -23 -20 -54 -22 -101 -1 -22 -4 -56 -5 -75 l-4 -35 -8
35 c-6 25 -7 14 -4 -40 2 -52 1 -67 -6 -50 -8 23 -8 22 -3 -5 3 -16 5 -57 4
-90 -1 -55 2 -63 29 -89 20 -19 31 -40 31 -57 0 -18 10 -36 32 -54 30 -26 31
-29 36 -126 l5 -99 93 0 94 0 0 34 c0 30 3 34 30 38 29 4 30 3 30 -32 l0 -37
73 -6 c39 -3 74 -3 76 -1 10 9 33 216 37 332 5 119 6 122 28 122 24 0 56 28
56 48 0 7 5 12 10 12 12 0 24 29 34 79 6 34 6 34 -14 16 -14 -13 -19 -26 -16
-41 4 -13 2 -26 -4 -29 -15 -9 -12 87 4 107 15 20 14 198 -3 239 -5 15 -23 42
-40 61 -17 20 -28 38 -24 41 3 4 0 13 -7 22 -8 10 -9 15 -1 15 6 0 9 13 7 30
-4 31 15 42 31 17 4 -7 22 -18 38 -25 24 -9 26 -9 11 1 -11 6 -30 22 -42 35
-11 12 -27 22 -34 22 -8 0 -10 8 -6 23 3 12 6 29 6 38 0 30 49 8 108 -47 31
-30 59 -54 63 -54 4 0 10 -13 14 -30 4 -16 11 -30 16 -30 28 0 -7 48 -94 132
-82 78 -121 98 -132 69 -3 -8 -1 -17 4 -19 6 -2 11 -12 11 -23 0 -23 -36 -40
-64 -29 -26 9 -32 30 -9 30 10 0 25 5 33 11 11 7 6 8 -19 4 -23 -5 -31 -4 -27
4 4 6 2 11 -5 11 -11 0 -10 -7 8 -93 4 -23 3 -26 -12 -20 -13 4 -16 3 -11 -5
14 -23 36 -13 36 17 0 24 4 29 26 29 22 0 25 -4 21 -24 -3 -16 0 -24 9 -24 18
0 18 -14 1 -29 -8 -6 -14 -24 -15 -40 -1 -42 -17 -66 -51 -80 -25 -11 -36 -10
-75 8 -26 11 -44 16 -40 10 3 -6 17 -14 30 -19 17 -7 24 -17 24 -35 0 -14 4
-24 9 -23 5 2 10 -1 11 -5 3 -11 -21 -67 -29 -67 -6 0 -39 79 -92 224 -27 71
-29 87 -23 153 8 88 10 90 124 99 65 6 84 4 91 -7 12 -20 11 -29 -4 -23 -7 2
-21 -2 -32 -11 -19 -14 -18 -14 13 -9 21 4 32 3 32 -5 0 -6 5 -11 11 -11 8 0
9 11 4 33 -4 17 -8 42 -9 54 -2 33 -11 37 -91 39 -68 2 -78 0 -120 -28z m37 4
c-77 -57 -76 -55 -80 -134 -5 -84 20 -170 89 -314 36 -76 39 -88 33 -139 l-7
-55 -61 0 c-33 0 -71 -3 -83 -6 -23 -6 -23 -6 -8 35 23 66 37 159 30 204 -10
66 -25 80 -89 81 l-55 0 22 26 c12 14 28 31 36 37 8 7 12 16 8 19 -6 6 -43
-29 -80 -75 -10 -13 -21 -20 -24 -17 -3 3 13 26 36 51 22 24 41 48 41 53 0 4
9 8 20 8 15 0 20 -7 20 -26 1 -14 8 -36 16 -50 10 -16 13 -18 8 -5 -3 11 -9
43 -11 70 -8 82 58 202 132 243 30 17 33 13 7 -6z m-190 -359 c23 -28 27 -47
34 -156 5 -95 20 -203 23 -166 1 21 31 29 101 28 77 -1 144 -20 148 -42 8 -38
-16 -49 -112 -47 -50 0 -127 -2 -172 -6 l-81 -6 -12 58 c-7 33 -15 118 -18
190 -5 113 -3 132 11 147 22 22 59 22 78 0z m443 -72 c9 -28 15 -78 14 -135
l0 -91 -20 70 c-11 39 -33 87 -50 108 l-30 38 17 51 17 51 18 -24 c10 -13 25
-44 34 -68z m-374 58 c14 -26 13 -139 -1 -153 -7 -7 -10 3 -10 30 0 22 -6 63
-14 92 -11 43 -11 52 0 52 7 0 18 -10 25 -21z m274 -73 c-30 -80 -31 -117 -5
-175 11 -24 20 -51 20 -60 0 -9 7 -25 15 -35 20 -27 19 -34 -7 -39 -13 -2 -5
-5 17 -5 22 0 34 2 28 5 -7 2 -13 10 -13 18 0 7 -7 18 -15 25 -29 24 -16 200
14 200 15 0 44 -123 49 -211 l5 -87 -37 -17 c-40 -19 -78 -16 -173 11 l-53 15
17 26 c15 22 22 25 64 21 58 -6 67 -1 75 39 6 29 4 31 -40 48 -42 16 -46 21
-46 51 0 18 5 35 10 37 6 3 5 4 -2 3 -7 -1 -16 -20 -19 -42 -4 -27 -7 -31 -8
-13 -2 44 11 93 20 77 6 -9 9 -4 9 15 0 45 80 181 96 164 2 -2 -7 -34 -21 -71z
m-432 -288 c-2 -5 -11 -8 -19 -8 -10 0 -14 13 -14 49 0 81 12 93 26 25 6 -32
10 -62 7 -66z m20 -22 c3 -7 -7 -29 -23 -47 -21 -26 -26 -38 -19 -51 6 -10 17
-18 25 -18 13 0 12 -5 -5 -29 l-21 -30 22 -4 c22 -4 22 -4 -2 -5 -14 -1 -38 6
-55 14 -16 8 -22 12 -12 9 10 -3 16 -1 12 4 -3 5 -1 20 4 33 5 13 6 37 3 54
l-6 29 -7 -30 c-5 -24 -7 -20 -8 24 -1 51 0 53 23 49 14 -3 31 -1 38 3 18 12
25 11 31 -5z m227 -16 c-12 -23 -21 -24 -75 -8 l-40 12 30 7 c17 3 45 7 63 8
30 1 32 -1 22 -19z m-97 -13 c12 -8 47 -17 77 -21 97 -10 100 -12 100 -68 0
-29 4 -47 10 -43 5 3 7 18 4 34 l-6 28 61 0 61 0 0 -88 0 -87 -40 -16 c-54
-21 -58 -21 -63 12 -4 25 -4 25 -6 -5 l-1 -33 -152 3 c-134 3 -158 6 -193 25
-42 22 -43 28 -3 13 22 -8 23 -7 24 46 1 37 8 63 21 82 15 19 18 32 12 50 -7
17 -4 29 11 49 16 20 18 27 8 34 -8 5 0 6 19 4 18 -2 43 -10 56 -19z m-85 -5
c2 -7 -3 -12 -12 -12 -9 0 -16 -7 -16 -16 0 -8 -7 -22 -16 -31 -21 -21 -41 -3
-25 24 8 14 11 14 11 3 0 -8 7 0 15 18 14 32 34 39 43 14z m-70 -186 c-2 -19
-5 -22 -15 -14 -18 14 -16 38 2 38 10 0 14 -9 13 -24z m435 -138 c-8 -29 -18
-71 -22 -93 -10 -55 -17 -65 -50 -65 -21 0 -36 10 -55 35 -34 44 -60 45 -102
4 -21 -20 -44 -32 -66 -34 -53 -4 -66 8 -74 72 -3 32 -13 70 -20 85 -8 15 -14
28 -14 30 0 2 66 2 148 0 81 -2 165 1 187 6 22 6 50 10 62 11 21 1 21 0 6 -51z"/>
<path d="M1344 842 c7 -7 12 -8 53 -10 20 -2 22 -8 26 -69 l3 -68 2 75 2 75
-46 2 c-26 1 -43 -1 -40 -5z"/>
<path d="M1243 1673 c-7 -2 -13 -13 -13 -23 0 -25 -20 -39 -55 -38 -49 1 -77
-11 -70 -32 8 -24 -12 -35 -32 -18 -13 10 -15 10 -9 0 5 -8 -5 -25 -27 -47
-25 -25 -31 -37 -23 -45 8 -8 6 -15 -8 -25 -16 -12 -19 -27 -19 -88 0 -66 -2
-74 -18 -70 -10 3 -20 12 -22 22 -2 9 -4 0 -4 -20 -1 -20 3 -42 8 -50 6 -10 9
-6 9 15 0 24 2 27 15 16 11 -9 12 -16 5 -25 -12 -15 -2 -125 11 -125 5 0 9 26
9 58 0 31 6 83 14 115 8 36 11 71 6 92 -5 23 -3 43 7 62 21 41 37 54 29 23 -3
-14 -9 -43 -12 -65 -6 -40 -6 -40 11 -17 11 15 16 39 15 70 -3 65 -2 72 13 66
7 -2 20 9 30 25 18 32 66 54 87 41 10 -6 3 -13 -23 -23 -33 -14 -67 -58 -67
-88 0 -7 -8 -22 -17 -33 l-18 -21 24 20 c13 11 32 37 42 58 16 29 25 37 48 37
27 0 51 30 51 65 0 7 12 23 26 34 35 28 19 51 -23 34z"/>
<path d="M1450 1545 c10 -12 10 -15 -3 -15 -8 0 -29 -3 -47 -7 -26 -5 -31 -3
-25 7 5 9 4 11 -3 6 -18 -11 -14 -41 6 -59 21 -19 54 -22 83 -7 22 12 26 59 7
78 -17 17 -33 15 -18 -3z m10 -60 c-15 -18 -43 -19 -71 -5 -25 14 -25 33 1 25
11 -3 20 -2 20 4 0 5 12 11 28 13 30 3 41 -14 22 -37z"/>
<path d="M1116 1429 c-19 -23 -44 -60 -55 -83 -27 -59 -46 -159 -33 -182 8
-15 11 -9 17 31 9 69 13 77 15 30 l2 -40 9 35 c6 27 4 38 -7 46 -10 8 -13 20
-8 39 4 17 9 23 14 15 5 -8 12 0 19 21 6 18 21 44 34 58 12 13 15 21 7 16 -8
-5 -3 3 13 18 28 27 33 37 18 37 -5 0 -25 -19 -45 -41z"/>
<path d="M1545 1419 c-22 -15 -41 -19 -74 -16 -34 4 -40 3 -27 -5 27 -15 96
-3 120 21 25 26 20 26 -19 0z"/>
<path d="M1640 1370 c0 -14 49 -44 58 -35 4 3 -4 15 -17 26 -26 21 -41 24 -41
9z"/>
<path d="M1718 1303 c-13 -3 -16 -9 -9 -21 9 -18 9 -60 -2 -147 -5 -34 -4 -42
2 -25 5 14 9 40 10 58 2 54 21 26 21 -30 0 -50 0 -51 20 -33 11 10 20 30 19
44 0 22 -1 23 -8 7 -11 -27 -37 67 -33 117 2 20 2 36 0 36 -1 -1 -11 -3 -20
-6z"/>
<path d="M915 1184 c-12 -25 -15 -48 -11 -76 5 -29 3 -40 -9 -44 -8 -4 -15
-12 -15 -20 0 -10 6 -8 20 6 13 13 20 33 20 59 0 21 5 52 11 70 16 45 5 49
-16 5z"/>
<path d="M1870 1096 c0 -9 -7 -16 -15 -16 -8 0 -15 -6 -15 -13 0 -21 37 -50
55 -44 23 9 18 24 -7 23 -14 -1 -23 5 -23 14 0 9 9 15 23 14 16 0 22 4 20 15
-4 21 -38 27 -38 7z"/>
<path d="M910 997 c0 -29 6 -38 38 -60 l39 -25 -5 24 c-2 13 -11 29 -18 35
-12 10 -13 9 -8 -5 4 -12 2 -15 -9 -10 -9 3 -14 17 -13 36 0 17 -5 33 -11 35
-9 3 -13 -7 -13 -30z"/>
<path d="M1785 970 c-18 -36 -19 -40 -2 -40 8 0 14 6 14 13 0 6 3 22 7 35 10
31 -1 27 -19 -8z"/>
<path d="M937 881 c16 -30 36 -57 43 -59 17 -6 -27 73 -54 96 -15 13 -13 4 11
-37z"/>
<path d="M1744 916 c-3 -7 -4 -19 -2 -26 2 -7 -11 -17 -29 -22 -28 -7 -35 -16
-47 -56 -7 -26 -12 -49 -10 -51 8 -8 47 35 66 73 l20 40 15 -27 c17 -34 36
-34 61 -2 22 27 19 77 -4 68 -9 -3 -11 -14 -7 -34 5 -25 2 -29 -15 -29 -25 0
-33 11 -34 50 -1 32 -6 38 -14 16z"/>
<path d="M1613 743 c-7 -2 -13 -14 -13 -25 0 -20 1 -21 20 -3 30 27 26 42 -7
28z"/>
</g>
</svg>
